<?xml version="1.0" encoding="UTF-8"?><svg id="Layer_1" xmlns="http://www.w3.org/2000/svg" width="979.8" height="1080" viewBox="0 0 979.8 1080"><path d="M492.76,720H.48c-.26,0-.47-.21-.47-.47V61.24C.01,27.42,27.43,0,61.25,0h431.04c169.39,0,306.71,137.32,306.71,306.71v107.05c0,169.13-137.1,306.24-306.24,306.24h0Z" style="fill:#a2e871;"/><path d="M619.8,1080H61.27C27.45,1080,.03,1052.58.03,1018.76v-298.29C.03,521.39,161.42,360,360.5,360h252.69c202.74,0,370.59,164.63,366.54,367.33-3.9,195.44-163.56,352.67-359.93,352.67h0Z" style="fill:#a8a9a4;"/><path d="M799.02,407.83v5.99c0,169.13-137.05,306.18-306.31,306.18H.48c-.26,0-.48-.22-.48-.48.13-99.21,40.45-189.02,105.38-254.08,65.17-65.17,155.17-105.38,254.69-105.38h259.69c65.31,0,126.49,17.41,179.26,47.77h0Z" style="fill:#478754;"/></svg>